<svg width="24" height="24" viewBox="0 0 24 24" fill="none" xmlns="http://www.w3.org/2000/svg">
<path d="M21.5308 7.53088C21.3848 7.67688 21.1928 7.75085 21.0008 7.75085C20.8088 7.75085 20.6167 7.67788 20.4707 7.53088L17.7508 4.81091V17.0008C17.7508 17.4148 17.4148 17.7508 17.0008 17.7508C16.5868 17.7508 16.2508 17.4148 16.2508 17.0008V4.81188L13.5308 7.53185C13.2378 7.82485 12.7628 7.82485 12.4698 7.53185C12.1768 7.23885 12.1768 6.76382 12.4698 6.47082L16.4698 2.47082C16.5388 2.40182 16.6216 2.34695 16.7136 2.30895C16.8966 2.23295 17.1036 2.23295 17.2866 2.30895C17.3786 2.34695 17.4618 2.40182 17.5308 2.47082L21.5308 6.47082C21.8238 6.76382 21.8238 7.23788 21.5308 7.53088ZM10.4707 16.4708L7.75076 19.1908V7.00085C7.75076 6.58685 7.41476 6.25085 7.00076 6.25085C6.58676 6.25085 6.25076 6.58685 6.25076 7.00085V19.1898L3.53079 16.4698C3.23779 16.1768 2.76275 16.1768 2.46975 16.4698C2.17675 16.7628 2.17675 17.2379 2.46975 17.5309L6.46975 21.5309C6.53875 21.5999 6.62167 21.6547 6.71267 21.6927C6.80367 21.7307 6.90178 21.7508 6.99978 21.7508C7.09778 21.7508 7.19464 21.7307 7.28664 21.6927C7.37864 21.6547 7.46081 21.5999 7.52981 21.5309L11.5298 17.5309C11.8228 17.2379 11.8228 16.7628 11.5298 16.4698C11.2368 16.1768 10.7637 16.1778 10.4707 16.4708Z" fill="#0F0F0F"/>
</svg>
