<svg width="20" height="20" viewBox="0 0 20 20" fill="none" xmlns="http://www.w3.org/2000/svg">
<path d="M17.4974 17.5H3.7474C2.4624 17.5 1.66406 16.7017 1.66406 15.4167V3.33333C1.66406 2.87333 2.0374 2.5 2.4974 2.5C2.9574 2.5 3.33073 2.87333 3.33073 3.33333V15.4167C3.33073 15.7908 3.37323 15.8333 3.7474 15.8333H17.4974C17.9574 15.8333 18.3307 16.2067 18.3307 16.6667C18.3307 17.1267 17.9574 17.5 17.4974 17.5ZM17.4332 5.51412C17.3907 5.41245 17.3299 5.32081 17.2532 5.24414C17.2532 5.24414 17.2532 5.24333 17.2524 5.24333C17.2399 5.23083 17.2232 5.22669 17.2107 5.21586C17.1424 5.15503 17.0682 5.1 16.9816 5.065C16.8907 5.0275 16.7949 5.01169 16.6982 5.00753C16.6857 5.00753 16.6757 5.00081 16.6632 5.00081H16.6616C16.6616 5.00081 16.6616 5.00081 16.6607 5.00081H14.1641C13.7041 5.00081 13.3307 5.37415 13.3307 5.83415C13.3307 6.29415 13.7041 6.66748 14.1641 6.66748H14.6574L11.6791 9.65668L10.3416 8.32753C9.69156 7.68253 8.63573 7.68337 7.98823 8.33171L5.2424 11.0775C4.91657 11.4033 4.91657 11.93 5.2424 12.2559C5.4049 12.4184 5.61823 12.5 5.83157 12.5C6.0449 12.5 6.25822 12.4184 6.42072 12.2559L9.16657 9.50999L10.5049 10.8391C11.1574 11.4858 12.2124 11.4825 12.8599 10.8325L15.8307 7.85085V8.33333C15.8307 8.79333 16.2041 9.16667 16.6641 9.16667C17.1241 9.16667 17.4974 8.79333 17.4974 8.33333V5.83333C17.4974 5.83333 17.4974 5.83335 17.4974 5.83252C17.4974 5.72419 17.4749 5.61579 17.4332 5.51412Z" fill="#323334"/>
</svg>
