<svg width="20" height="20" viewBox="0 0 20 20" fill="none" xmlns="http://www.w3.org/2000/svg">
<path d="M6.66927 4.58333V3.75C6.66927 2.91667 7.08594 2.5 7.91927 2.5H12.0859C12.9193 2.5 13.3359 2.91667 13.3359 3.75V4.58333C13.3359 5.41667 12.9193 5.83333 12.0859 5.83333H7.91927C7.08594 5.83333 6.66927 5.41667 6.66927 4.58333ZM16.6693 6.66667V15C16.6693 16.6667 15.8359 17.5 14.1693 17.5H5.83594C4.16927 17.5 3.33594 16.6667 3.33594 15V6.66667C3.33594 5.215 3.96251 4.39751 5.22335 4.21417C5.32418 4.19917 5.41927 4.28249 5.41927 4.38416V4.58252C5.41927 6.09919 6.4026 7.08252 7.91927 7.08252H12.0859C13.6026 7.08252 14.5859 6.09919 14.5859 4.58252V4.38416C14.5859 4.28249 14.6819 4.19917 14.7819 4.21417C16.0427 4.39751 16.6693 5.215 16.6693 6.66667ZM11.4609 13.3333C11.4609 12.9883 11.1809 12.7083 10.8359 12.7083H7.5026C7.1576 12.7083 6.8776 12.9883 6.8776 13.3333C6.8776 13.6783 7.1576 13.9583 7.5026 13.9583H10.8359C11.1809 13.9583 11.4609 13.6783 11.4609 13.3333ZM13.1276 10C13.1276 9.655 12.8476 9.375 12.5026 9.375H7.5026C7.1576 9.375 6.8776 9.655 6.8776 10C6.8776 10.345 7.1576 10.625 7.5026 10.625H12.5026C12.8476 10.625 13.1276 10.345 13.1276 10Z" fill="#323334"/>
</svg>
