<svg width="20" height="20" viewBox="0 0 20 20" fill="none" xmlns="http://www.w3.org/2000/svg">
<path d="M9.9974 2.08398C6.09156 2.08398 2.91406 5.26148 2.91406 9.16732C2.91406 13.3198 6.77156 15.8681 9.32406 17.554L9.76573 17.8473C9.83573 17.894 9.91656 17.9173 9.99656 17.9173C10.0766 17.9173 10.1574 17.894 10.2274 17.8473L10.6691 17.554C13.2216 15.8681 17.0791 13.3198 17.0791 9.16732C17.0807 5.26148 13.9032 2.08398 9.9974 2.08398ZM9.9974 11.2507C8.84656 11.2507 7.91406 10.3182 7.91406 9.16732C7.91406 8.01648 8.84656 7.08398 9.9974 7.08398C11.1482 7.08398 12.0807 8.01648 12.0807 9.16732C12.0807 10.3182 11.1482 11.2507 9.9974 11.2507Z" fill="#101010"/>
</svg>
